<svg width="48" height="48" viewBox="0 0 48 48" xmlns="http://www.w3.org/2000/svg" xmlns:xlink="http://www.w3.org/1999/xlink" stroke-opacity="1" fill="none" overflow="hidden" opacity="1"><style>
.MsftOfcThm_Accent2_Stroke_v2 {
 stroke:#ED7D31; 
}
</style>
<path d="M19 20C22.866 20 26 16.866 26 13 26 9.13401 22.866 6 19 6 15.134 6 12 9.13401 12 13 12 16.866 15.134 20 19 20Z" class="MsftOfcThm_Accent2_Stroke_v2" stroke="#ED7D31" stroke-width="1.28" stroke-linejoin="round" stroke-miterlimit="4" stroke-opacity="1" fill="none" fill-opacity="1"/><path d="M27 28 18.8 28C14.3196 28 12.0794 28 10.3681 28.8719 8.86278 29.6389 7.63893 30.8628 6.87195 32.3681 6 34.0794 6 36.3196 6 40.8L6 42 27 42" class="MsftOfcThm_Accent2_Stroke_v2" stroke="#ED7D31" stroke-width="1.28" stroke-linecap="round" stroke-linejoin="round" stroke-miterlimit="4" stroke-opacity="1" fill="none" fill-opacity="1"/><path d="M39.9997 41.0002 36.8281 37.8286" class="MsftOfcThm_Accent2_Stroke_v2" stroke="#ED7D31" stroke-width="1.28" stroke-linecap="round" stroke-linejoin="round" stroke-miterlimit="4" stroke-opacity="1" fill="none" fill-opacity="1"/><path d="M38 35C38 36.1046 37.5523 37.1046 36.8284 37.8284 36.1046 38.5523 35.1046 39 34 39 31.7909 39 30 37.2091 30 35 30 32.7909 31.7909 31 34 31 36.2091 31 38 32.7909 38 35Z" class="MsftOfcThm_Accent2_Stroke_v2" stroke="#ED7D31" stroke-width="1.28" stroke-linecap="round" stroke-linejoin="round" stroke-miterlimit="4" stroke-opacity="1" fill="none" fill-opacity="1"/></svg>