<svg width="48" height="48" viewBox="0 0 48 48" xmlns="http://www.w3.org/2000/svg" xmlns:xlink="http://www.w3.org/1999/xlink" stroke-opacity="1" fill="none" overflow="hidden" opacity="1"><path d="M24 30C30.6274 30 36 24.4694 36 17.6471L36 4 12 4 12 17.6471C12 24.4694 17.3726 30 24 30Z" stroke="#FB4F1E" stroke-width="2.00011" stroke-linejoin="round" stroke-miterlimit="4" stroke-opacity="1" fill="#FB4F1E" fill-opacity="1"/><path d="M12 21 12 11 4 11C4 17.6667 8 21 12 21Z" stroke="#FB4F1E" stroke-width="2.00011" stroke-linecap="round" stroke-linejoin="round" stroke-miterlimit="4" stroke-opacity="1" fill="#FB4F1E" fill-rule="evenodd" fill-opacity="1" clip-rule="evenodd"/><path d="M36 21 36 11 44 11C44 17.6667 40 21 36 21Z" stroke="#FB4F1E" stroke-width="2.00011" stroke-linecap="round" stroke-linejoin="round" stroke-miterlimit="4" stroke-opacity="1" fill="#FB4F1E" fill-rule="evenodd" fill-opacity="1" clip-rule="evenodd"/><path d="M24 32 24 36" stroke="#FB4F1E" stroke-width="2.00011" stroke-linecap="round" stroke-linejoin="round" stroke-miterlimit="4" stroke-opacity="1" fill="#FB4F1E" fill-opacity="1"/><path d="M15 42 18.69 36 29.0425 36 33 42 15 42Z" stroke="#FB4F1E" stroke-width="2.00011" stroke-linejoin="round" stroke-miterlimit="4" stroke-opacity="1" fill="#FB4F1E" fill-opacity="1"/></svg>