<svg width="256" height="256" viewBox="0 0 256 256" xmlns="http://www.w3.org/2000/svg" xmlns:xlink="http://www.w3.org/1999/xlink" fill="none" overflow="hidden"><defs><linearGradient x1="0" y1="0.5" x2="1" y2="0.5" gradientUnits="userSpaceOnUse" spreadMethod="pad" id="wps{44a14538-ecec-4693-a97a-26745ee548cf}_solid@Accent2_-0.25@Accent2_-0.25"><stop offset="0" stop-color="#C55A11" stop-opacity="1"/><stop offset="1" stop-color="#C55A11" stop-opacity="1"/></linearGradient></defs><defs><clipPath id="clip0_11_133509"><rect x="0" y="0" width="256" height="256" fill="#FFFFFF"/></clipPath></defs><g id="单面性_10741942171.业绩上升" clip-path="url(#clip0_11_133509)"><g id="Group"><g id="Group_2"><g id="Group_3"><path d="M33.6836 256C34.5729 255.192 35.4352 254.343 36.3783 253.575 51.33 241.167 63.6602 225.905 72.6496 208.681 81.7377 191.276 88.0046 172.539 91.2163 153.169 93.5743 139.655 94.6521 126.074 94.4231 112.371 94.3692 110.336 94.2209 108.302 94.0997 106.173L52.9241 106.173 137.66 0 222.315 106.145 220.564 106.145 183.457 106.119C182.46 106.119 182.003 106.254 181.894 107.426 180.355 122.009 177.312 136.395 172.813 150.354 167.625 166.538 159.869 181.782 149.84 195.504 139.778 209.132 127.346 220.838 113.138 230.063 95.0127 241.818 74.7179 249.826 53.4495 253.616 47.9658 254.626 42.3741 255.057 36.8364 255.771 36.4592 255.825 36.0954 255.92 35.7451 256L33.6836 256Z" id="Vector" stroke="none" stroke-width="1" stroke-linecap="butt" stroke-linejoin="miter" stroke-miterlimit="4" fill="#FB4E1E" fill-rule="evenodd" fill-opacity="1" clip-rule="evenodd"/></g></g></g></g></svg>